HIERARCHY
ROOT hip
{
	OFFSET 0.000000 0.000000 0.000000 
	CHANNELS 6 Xposition Yposition Zposition Xrotation Zrotation Yrotation
	JOINT abdomen
	{
		OFFSET 0.000000 3.402643 0.000000 
		CHANNELS 3 Xrotation Zrotation Yrotation
		JOINT chest
		{
			OFFSET 0.000000 8.438565 -0.680529 
			CHANNELS 3 Xrotation Zrotation Yrotation
			JOINT neck
			{
				OFFSET 0.000000 10.207942 -0.272212 
				CHANNELS 3 Xrotation Zrotation Yrotation
				JOINT head
				{
					OFFSET 0.000000 3.130431 0.000000 
					CHANNELS 3 Xrotation Zrotation Yrotation
					End Site
					{
						OFFSET 0.000000 3.130435 0.000000 
					}
				}
			}
			JOINT lCollar
			{
				OFFSET 3.470700 6.669187 -0.816635 
				CHANNELS 3 Yrotation Zrotation Xrotation
				JOINT lShldr
				{
					OFFSET 3.198488 0.000000 0.000000 
					CHANNELS 3 Zrotation Yrotation Xrotation
					JOINT lForeArm
					{
						OFFSET 10.139888 0.000000 0.000000 
						CHANNELS 3 Yrotation Zrotation Xrotation
						JOINT lHand
						{
							OFFSET 8.370511 0.000000 0.000000 
							CHANNELS 3 Zrotation Yrotation Xrotation
							End Site
							{
								OFFSET 4.083176 0.000000 0.000000 
							}
						}
					}
				}
			}
			JOINT rCollar
			{
				OFFSET -3.470700 6.669187 -0.816635 
				CHANNELS 3 Yrotation Zrotation Xrotation
				JOINT rShldr
				{
					OFFSET -3.198488 0.000000 0.000000 
					CHANNELS 3 Zrotation Yrotation Xrotation
					JOINT rForeArm
					{
						OFFSET -10.139888 0.000000 0.000000 
						CHANNELS 3 Yrotation Zrotation Xrotation
						JOINT rHand
						{
							OFFSET -8.370511 0.000000 0.000000 
							CHANNELS 3 Zrotation Yrotation Xrotation
							End Site
							{
								OFFSET -4.083176 0.000000 0.000000 
							}
						}
					}
				}
			}
		}
	}
	JOINT lThigh
	{
		OFFSET 5.308129 -1.633274 1.361059 
		CHANNELS 3 Xrotation Zrotation Yrotation
		JOINT lShin
		{
			OFFSET -2.041588 -20.007561 0.000000 
			CHANNELS 3 Xrotation Zrotation Yrotation
			JOINT lFoot
			{
				OFFSET 0.000000 -19.190928 -1.224953 
				CHANNELS 3 Xrotation Yrotation Zrotation
				End Site
				{
					OFFSET 0.000000 -2.449906 4.627600 
				}
			}
		}
	}
	JOINT rThigh
	{
		OFFSET -5.308129 -1.633274 1.361059 
		CHANNELS 3 Xrotation Zrotation Yrotation
		JOINT rShin
		{
			OFFSET 2.041588 -20.007561 0.000000 
			CHANNELS 3 Xrotation Zrotation Yrotation
			JOINT rFoot
			{
				OFFSET 0.000000 -19.190928 -1.224953 
				CHANNELS 3 Xrotation Yrotation Zrotation
				End Site
				{
					OFFSET 0.000000 -2.449906 4.627600 
				}
			}
		}
	}
}
MOTION
Frames: 18
Frame Time: 0.016667
4.273717 37.220688 31.143570 45.862701 7.415190 -22.989401 -13.581500 -5.411320 -0.958470 19.187099 -3.338890 -1.228950 -22.087099 -1.866460 9.717030 -0.584747 2.549970 4.308230 2.000000 -2.000000 0.000000 -40.812302 -51.467300 170.813004 13.496200 -0.347788 0.031969 0.050359 -0.042477 -152.272995 -2.000000 2.000000 0.000000 -69.676903 67.282799 65.577103 -54.775902 0.293704 0.111689 -0.125325 0.133143 166.994003 -89.005112 9.604723 -15.841913 41.596519 2.049922 3.083750 -8.650603 2.479043 2.354298 -61.703220 -3.586585 -19.600735 63.469013 0.147730 -4.654243 -13.983821 16.312357 4.616688 
4.500539 36.358040 30.966188 45.515800 7.495620 -24.494499 -13.337300 -5.513410 -1.044800 19.147499 -3.680530 -1.267130 -22.429300 -2.307190 10.407100 -0.740772 2.286960 4.586770 2.000000 -2.000000 0.000000 -40.565102 -51.219601 168.177002 14.062700 -0.347466 0.033281 0.051006 -0.044766 -153.123001 -2.000000 2.000000 0.000000 -69.924599 66.257401 65.626900 -57.061001 0.289188 0.114745 -0.127906 0.134842 165.891006 -92.568787 10.077014 -15.211314 50.977360 1.531696 3.609837 -10.741042 -0.692405 1.815607 -65.646111 -5.221237 -19.831064 71.296730 0.772608 -4.936116 -14.058276 17.006914 4.773255 
4.718611 35.295658 30.830595 44.479198 7.390070 -26.257900 -13.043300 -5.544930 -1.082730 19.068800 -3.904940 -1.275840 -22.598900 -2.770350 11.143100 -0.808904 2.033870 4.888560 2.000000 -2.000000 0.000000 -40.610100 -50.557999 167.130997 14.355600 -0.347295 0.033959 0.052906 -0.050848 -155.397995 -2.000000 2.000000 0.000000 -69.843697 65.866898 65.753304 -60.000500 0.283207 0.118407 -0.128551 0.135255 165.617004 -95.652306 10.740034 -14.918142 61.703964 0.794702 4.119569 -12.250572 -2.812201 1.230209 -68.746368 -6.796803 -19.813169 78.757080 1.430047 -5.147115 -15.320356 16.836899 5.055339 
4.912955 34.110943 30.735107 42.859798 7.371980 -28.121901 -12.836500 -5.487500 -1.073850 18.804899 -3.728730 -1.273000 -22.561899 -3.097120 11.832500 -0.799000 1.868450 5.205550 2.000000 -2.000000 0.000000 -41.455002 -49.395000 167.481995 14.619300 -0.347137 0.034568 0.065539 -0.058737 -158.395996 -2.000000 2.000000 0.000000 -68.969803 65.994797 66.768898 -63.564999 0.275713 0.122428 -0.127883 0.134827 165.901001 -97.800194 11.633091 -14.491505 72.623459 -0.099688 4.519056 -12.941349 -4.672558 0.627575 -71.406456 -8.577944 -19.441301 85.625343 2.089987 -5.248551 -16.314310 17.092768 5.386936 
5.092954 32.830734 30.678825 40.926701 7.715560 -29.913000 -12.749200 -5.480750 -1.003580 18.424200 -3.308260 -1.263810 -22.384899 -3.336920 12.452700 -0.710995 1.741980 5.492300 2.000000 -2.000000 0.000000 -42.944000 -47.878101 168.865997 14.980600 -0.346917 0.035401 0.069538 -0.068030 -162.009995 -2.000000 2.000000 0.000000 -66.573997 66.221703 69.355698 -67.627502 0.266888 0.126432 -0.126646 0.134021 166.427994 -99.064034 12.686696 -13.675036 82.833588 -1.087245 4.766298 -13.030765 -7.123588 -0.042670 -73.884712 -10.581925 -18.662107 91.463539 2.711871 -5.317356 -16.745897 18.603012 5.870833 
5.258362 31.438751 30.675459 38.978802 8.289460 -31.460300 -12.752700 -5.579810 -0.882119 18.072901 -2.936700 -1.240030 -22.306700 -3.716740 13.070200 -0.623009 1.508410 5.738500 2.000000 -2.000000 0.000000 -44.746101 -46.261600 171.072006 15.371300 -0.346673 0.036301 0.074790 -0.078272 -166.121002 -2.000000 2.000000 0.000000 -62.360600 66.185898 73.630600 -72.012199 0.257069 0.130041 -0.125416 0.142969 166.955002 -99.622253 13.789711 -12.526728 91.725845 -2.064617 4.906178 -12.324407 -10.737794 -0.710099 -76.536392 -12.830020 -17.711212 96.581337 3.244152 -5.318943 -17.064844 21.208469 6.472702 
5.384652 29.890057 30.734322 37.062801 8.734810 -32.586700 -12.766400 -5.720960 -0.788984 17.740999 -2.721330 -1.233550 -22.472700 -4.211010 13.631600 -0.583997 1.167720 5.913380 2.000000 -2.000000 0.000000 133.207001 -135.268005 -6.285440 15.683800 -0.346474 0.037019 0.080463 -0.097420 -170.037003 -2.000000 2.000000 0.000000 -56.496101 65.710602 79.438797 -76.680199 0.246347 0.133047 -0.124962 0.132898 167.151001 -99.573402 14.794654 -11.220901 99.137383 -2.965809 4.996245 -10.929872 -15.630060 -1.165834 -78.857254 -15.250909 -16.955923 100.812340 3.714988 -5.310293 -17.278229 24.335415 7.049199 
5.466310 28.191278 30.851040 35.144798 8.648380 -33.244202 -12.745400 -5.694300 -0.856267 17.321100 -2.496020 -1.265330 -23.443899 -4.554650 14.068600 -0.339856 1.079970 6.022670 2.000000 -2.000000 0.000000 130.731003 -136.787003 -4.228430 15.859600 -0.346360 0.037423 -179.925003 -179.906006 7.297070 -2.000000 2.000000 0.000000 -49.894699 64.726196 86.105400 -81.631401 0.234747 0.135269 -0.125893 0.133523 166.750000 -98.524292 15.656006 -9.851286 104.786736 -3.739740 5.022604 -12.470701 -20.160208 -2.313359 -80.349022 -17.794315 -16.688438 104.428993 4.135483 -5.272299 -18.059853 26.635876 7.636724 
5.527591 26.382072 30.997978 33.470901 8.079740 -33.440201 -12.718300 -5.457660 -1.080690 16.833000 -2.280340 -1.336120 -23.949699 -4.475140 14.278500 -0.476623 1.041110 6.081740 2.000000 -2.000000 0.000000 127.884003 -138.322006 -3.388980 16.093901 -0.346206 0.037961 -179.923004 -179.903000 6.008010 -2.000000 2.000000 0.000000 -43.423000 63.095501 92.761597 -86.738800 0.222627 0.136504 -0.128366 0.135138 165.695999 -97.224144 16.511259 -8.623854 109.377884 -4.429964 5.011424 -20.041733 -22.254196 -5.735460 -81.198654 -20.242592 -16.875183 107.367180 4.455798 -5.235618 -20.023588 27.404610 8.486545 
5.575492 24.533995 31.155928 32.190102 7.346450 -33.639301 -12.702600 -5.145380 -1.102940 16.403000 -2.279160 -1.289730 -24.514400 -4.300190 14.294700 -0.603586 1.060660 6.038810 2.000000 -2.000000 0.000000 125.005997 -139.660995 -2.786610 16.826401 -0.345711 0.039637 -179.921005 -179.901001 4.875190 -2.000000 2.000000 0.000000 -36.987301 60.623299 99.114799 -91.924301 0.210586 0.117123 -0.131592 0.137148 164.337997 -96.732750 18.235643 -7.682814 114.073746 -5.155071 4.976424 -30.311279 -20.944733 -9.777410 -81.785065 -21.989151 -17.112478 109.666214 4.734149 -5.185898 -23.518793 27.331816 10.047810 
5.616035 22.863525 31.282532 31.089399 6.894710 -34.326099 -12.733600 -4.886190 -0.603626 16.080099 -2.395020 -1.013880 -25.437099 -3.998450 14.027100 -0.828225 1.080240 5.837690 2.000000 -2.000000 0.000000 122.382004 -140.770004 -0.631014 18.252199 -0.344685 0.042880 -179.917007 -179.895996 2.541210 -2.000000 2.000000 0.000000 -30.452600 57.221901 104.959999 -97.090302 0.199179 0.116225 -0.134249 0.138726 163.235001 -97.087654 21.729053 -6.387853 118.971954 -5.984579 4.925537 -37.800690 -19.666435 -12.756217 -82.010956 -22.953791 -16.939915 112.063286 5.049865 -5.148172 -28.959213 26.829220 12.590547 
5.605666 21.182608 31.407118 29.635700 6.834910 -35.345100 -12.736100 -4.684650 0.155019 15.767600 -2.296650 -0.647639 -27.269501 -3.368380 13.391900 -1.482620 1.216570 5.460710 2.000000 -2.000000 0.000000 120.014000 -142.520004 4.515100 20.947500 -0.342528 0.048938 -179.908997 -179.876999 -1.833770 -2.000000 2.000000 0.000000 -24.532000 53.243900 109.848000 -102.120003 0.188195 0.114366 -0.135102 0.139218 162.882996 -97.265991 27.362978 -4.253975 124.603699 -6.999552 4.841099 -44.569019 -20.591188 -16.738220 -81.796272 -24.762587 -16.106750 116.081276 5.654215 -5.092466 -37.103821 25.235046 16.243191 
5.588411 19.667166 31.545628 27.604900 6.828100 -36.315399 -12.627100 -4.486500 0.845386 15.289600 -2.051850 -0.328586 -30.151501 -2.465780 12.359600 -2.713620 1.546060 4.946510 2.000000 -2.000000 0.000000 -62.674301 -34.880501 -170.759995 24.287399 -0.339464 0.056293 -179.906998 -179.876007 -2.409940 -2.000000 2.000000 0.000000 -19.769600 49.295200 113.669998 -106.690002 0.178389 0.111848 -0.133399 0.138229 163.585999 -95.434669 35.116104 -0.751568 129.866150 -8.098289 4.742208 -53.204502 -22.992981 -23.285307 -80.725403 -28.213406 -15.435671 120.597961 6.379904 -5.024447 -44.873241 23.836254 19.901140 
5.597320 18.402575 31.714582 25.245501 6.383200 -37.339901 -12.408400 -4.365100 1.602160 14.623900 -2.360350 0.069224 -33.115299 -1.923220 11.073900 -4.062370 1.834200 4.292890 2.000000 -2.000000 0.000000 -65.373001 -32.120899 -168.324997 27.549101 -0.336063 0.063292 -179.917007 -179.895004 2.365430 -2.000000 2.000000 0.000000 -15.546200 45.825100 116.896004 -110.469002 0.170453 0.109181 -0.129151 0.135637 165.363007 -89.634468 45.044788 5.182203 134.381424 -9.069554 4.595932 -66.639359 -24.353266 -33.530872 -78.584076 -32.119980 -15.604346 124.274925 6.984517 -4.933891 -51.836926 22.598877 23.346523 
5.642884 17.481176 31.897247 22.978399 5.388300 -38.598701 -12.117600 -4.340460 2.510800 14.021400 -3.434620 0.598180 -35.221802 -2.019440 9.926050 -5.039670 1.908690 3.614280 2.000000 -2.000000 0.000000 -67.254097 -30.505800 -166.712997 29.765900 -0.333527 0.067933 -179.923996 -179.904999 6.750200 -2.000000 2.000000 0.000000 -11.468700 43.487701 119.920998 -113.369003 0.164491 0.106783 -0.123271 0.131738 167.882996 -79.807709 54.725407 13.658160 137.861023 -9.804765 4.457970 -81.250473 -21.127146 -44.185940 -75.576080 -35.478542 -16.583031 126.821693 7.375118 -4.832335 -57.544209 21.679581 26.426506 
5.706556 16.965321 32.047668 21.017799 4.258290 -39.810600 -11.851500 -4.270360 3.320810 13.620100 -4.604870 1.106250 -36.197201 -2.432910 9.100350 -5.518250 1.849290 3.070950 2.000000 -2.000000 0.000000 -68.453697 -30.743500 -163.938995 29.482700 -0.333861 0.067346 -179.925003 -179.906998 7.492380 -2.000000 2.000000 0.000000 -7.436200 43.082901 123.403000 -115.342003 0.160510 0.104980 -0.116290 0.126601 170.979004 110.102318 120.084175 201.201996 139.906952 -10.212860 4.349166 -89.791420 -15.932654 -49.396885 -72.287483 -38.061455 -17.671227 128.348846 7.598439 -4.784589 -62.423832 20.514826 28.948309 
5.764199 16.878820 32.125969 19.441799 3.490670 -40.643700 -12.100200 -4.263060 3.708310 13.420700 -4.932390 1.338770 -36.652901 -2.438610 8.410440 -5.831380 1.973310 2.736430 2.000000 -2.000000 0.000000 -69.820999 -31.968800 -161.651001 26.582300 -0.337113 0.061238 0.073371 -0.101389 -171.746002 -2.000000 2.000000 0.000000 -3.112480 45.332199 128.166000 -116.084000 0.159028 0.104267 179.891998 179.869995 -5.212670 -66.108711 60.386761 22.749372 140.335297 -10.304492 4.335819 -90.884979 -13.871035 -49.057316 -70.675255 -39.035435 -17.068758 128.743118 7.570856 -4.714532 -64.937935 19.308405 29.622524 
5.810111 17.186514 32.126980 18.467100 3.186750 -40.996498 -12.127800 -4.386610 3.351420 13.291100 -5.124760 1.188710 -36.917702 -1.840870 7.927650 -6.028130 2.270630 2.579290 2.000000 -2.000000 0.000000 -70.888199 -33.084301 -162.654007 22.314699 -0.341326 0.051971 0.078482 -0.094305 -168.718994 -2.000000 2.000000 0.000000 2.777400 50.037998 135.089996 -115.049004 0.161097 0.105257 179.901001 179.889008 -0.515417 -69.511963 57.066414 17.907829 139.395767 -10.080482 4.361085 -85.845032 -15.528346 -44.777927 -71.362244 -37.216244 -14.353772 128.012070 7.368069 -4.721448 -63.576637 18.172710 27.480444 
